<?xml version="1.0" standalone="no"?>
<!DOCTYPE svg PUBLIC "-//W3C//DTD SVG 20010904//EN"
 "http://www.w3.org/TR/2001/REC-SVG-20010904/DTD/svg10.dtd">
<svg version="1.0" xmlns="http://www.w3.org/2000/svg"
 width="904.000000pt" height="904.000000pt" viewBox="0 0 904.000000 904.000000"
 preserveAspectRatio="xMidYMid meet">
<metadata>
Created by potrace 1.14, written by Peter Selinger 2001-2017
</metadata>
<g transform="translate(0.000000,904.000000) scale(0.100000,-0.100000)"
fill="#000000" stroke="none">
<path d="M1695 9030 c-27 -4 -68 -10 -90 -13 -282 -40 -566 -159 -805 -336
-98 -73 -271 -245 -347 -346 -124 -165 -232 -367 -298 -557 -43 -122 -101
-351 -109 -433 -4 -32 -8 -61 -10 -64 -19 -33 -29 -602 -13 -756 33 -315 99
-563 214 -805 172 -360 412 -630 727 -815 120 -70 322 -156 426 -181 8 -2 42
-10 75 -18 33 -8 78 -17 100 -20 23 -4 52 -9 65 -11 42 -9 220 -19 315 -19 89
1 275 13 285 19 3 1 28 6 55 9 58 8 173 37 260 65 450 145 808 456 1003 871
40 85 104 264 116 322 19 93 26 132 26 139 0 5 -146 9 -325 9 l-325 0 -5 -27
c-45 -213 -177 -427 -345 -565 -274 -222 -687 -307 -1060 -216 -544 132 -890
591 -965 1279 -12 118 -14 519 -1 579 2 14 10 61 16 105 52 355 192 650 409
865 168 167 348 264 586 316 106 23 349 28 471 9 435 -68 770 -357 875 -755
11 -44 17 -68 18 -81 1 -4 147 -6 326 -6 308 0 325 1 325 18 0 10 -9 58 -21
106 -11 48 -22 95 -24 103 -24 110 -127 338 -210 466 -253 389 -685 659 -1170
729 -22 4 -51 9 -65 12 -39 8 -449 11 -505 3z"/>
<path d="M5599 4250 c-1 -20 -1 -4221 0 -4237 1 -10 72 -13 321 -13 249 0 320
3 321 13 0 6 1 709 2 1562 2 1464 3 1550 19 1550 17 0 75 -79 337 -460 41 -60
116 -169 166 -240 49 -72 103 -151 120 -175 16 -25 32 -47 35 -50 3 -3 37 -50
75 -105 38 -55 98 -143 134 -195 36 -52 81 -118 101 -146 19 -29 132 -191 249
-360 118 -170 234 -336 256 -369 23 -33 79 -114 125 -180 46 -66 102 -147 125
-180 213 -308 276 -398 312 -450 23 -33 66 -95 94 -138 l53 -77 298 0 298 0 0
2133 0 2132 -317 0 -318 0 -2 -1555 c-1 -855 -2 -1561 -2 -1567 -1 -7 -9 -13
-18 -13 -16 1 -103 124 -864 1224 -31 45 -174 252 -319 461 -145 209 -293 423
-329 475 -53 77 -223 322 -271 390 -6 8 -80 116 -166 240 -85 124 -174 252
-198 285 l-44 60 -296 0 c-258 0 -296 -2 -297 -15z"/>
</g>
</svg>
